<svg width="350" height="150" viewBox="0 0 350 150" fill="none" xmlns="http://www.w3.org/2000/svg">
<rect width="350" height="150" rx="10" fill="url(#paint0_linear_1_2)"/>
<path d="M311.555 39.3926C311.182 38.9799 310.714 38.6471 310.184 38.4182C309.654 38.1894 309.075 38.07 308.488 38.0686H211.418C210.29 35.4112 208.31 33.1248 205.735 31.5072C203.16 29.8897 200.11 29.016 196.982 29C195.926 29 194.913 29.3822 194.166 30.0625C193.42 30.7427 193 31.6654 193 32.6275C193 33.5895 193.42 34.5122 194.166 35.1924C194.913 35.8727 195.926 36.2549 196.982 36.2549C198.796 36.2654 200.545 36.8707 201.909 37.9598C203.273 39.049 204.161 40.5492 204.409 42.1858L214.903 102.129C215.056 102.988 215.542 103.768 216.273 104.327C217.004 104.886 217.931 105.188 218.885 105.176H223.863C223.044 106.968 222.722 108.916 222.928 110.848C223.134 112.78 223.859 114.635 225.041 116.25C226.223 117.865 227.825 119.189 229.703 120.105C231.582 121.021 233.68 121.5 235.81 121.5C237.941 121.5 240.039 121.021 241.917 120.105C243.796 119.189 245.397 117.865 246.579 116.25C247.761 114.635 248.487 112.78 248.693 110.848C248.898 108.916 248.577 106.968 247.757 105.176H267.669C266.85 106.968 266.528 108.916 266.734 110.848C266.939 112.78 267.665 114.635 268.847 116.25C270.029 117.865 271.631 119.189 273.509 120.105C275.388 121.021 277.486 121.5 279.616 121.5C281.747 121.5 283.845 121.021 285.723 120.105C287.602 119.189 289.203 117.865 290.385 116.25C291.567 114.635 292.293 112.78 292.499 110.848C292.704 108.916 292.383 106.968 291.563 105.176H296.541C297.597 105.176 298.61 104.794 299.357 104.114C300.104 103.434 300.524 102.511 300.524 101.549C300.524 100.587 300.104 99.6643 299.357 98.984C298.61 98.3037 297.597 97.9216 296.541 97.9216H222.29L221.315 92.4804H298.532C299.47 92.4959 300.383 92.2098 301.111 91.6723C301.84 91.1348 302.337 90.3805 302.515 89.5422L312.471 42.3853C312.571 41.8558 312.541 41.3127 312.382 40.7951C312.224 40.2776 311.941 39.7986 311.555 39.3926Z" fill="#231F20"/>
<path d="M312.471 42.3854L302.515 89.5423C302.337 90.3806 301.84 91.1349 301.111 91.6724C300.383 92.2099 299.47 92.496 298.532 92.4805H221.315L211.359 38.0687H308.488C309.075 38.0701 309.654 38.1894 310.184 38.4183C310.714 38.6472 311.182 38.9799 311.555 39.3927C311.941 39.7986 312.224 40.2777 312.382 40.7952C312.541 41.3128 312.571 41.8559 312.471 42.3854Z" fill="#414042"/>
<path d="M247.1 77.0637C247.492 77.3815 247.949 77.6257 248.444 77.7823C248.94 77.9389 249.465 78.0048 249.988 77.9761C250.512 77.9475 251.024 77.8249 251.496 77.6154C251.967 77.4059 252.388 77.1136 252.735 76.7553L268.665 60.4318C269.367 59.7103 269.726 58.7641 269.663 57.8015C269.599 56.8389 269.119 55.9387 268.326 55.299C267.534 54.6592 266.496 54.3323 265.439 54.3901C264.382 54.4479 263.394 54.8858 262.691 55.6073L246.762 71.9308C246.413 72.2876 246.145 72.7036 245.973 73.1551C245.801 73.6065 245.729 74.0844 245.76 74.5613C245.792 75.0383 245.926 75.5049 246.156 75.9343C246.386 76.3637 246.707 76.7475 247.1 77.0637Z" fill="#1A98FF"/>
<path d="M266.674 77.9705C269.423 77.9705 271.651 75.9404 271.651 73.4362C271.651 70.9319 269.423 68.9019 266.674 68.9019C263.924 68.9019 261.696 70.9319 261.696 73.4362C261.696 75.9404 263.924 77.9705 266.674 77.9705Z" fill="#1A98FF"/>
<path d="M247.757 63.4608C250.507 63.4608 252.735 61.4308 252.735 58.9265C252.735 56.4223 250.507 54.3922 247.757 54.3922C245.008 54.3922 242.78 56.4223 242.78 58.9265C242.78 61.4308 245.008 63.4608 247.757 63.4608Z" fill="#1A98FF"/>
<path d="M235.81 121.5C242.958 121.5 248.753 116.222 248.753 109.711C248.753 103.2 242.958 97.9216 235.81 97.9216C228.662 97.9216 222.868 103.2 222.868 109.711C222.868 116.222 228.662 121.5 235.81 121.5Z" fill="#414042"/>
<path d="M279.616 121.5C286.764 121.5 292.559 116.222 292.559 109.711C292.559 103.2 286.764 97.9216 279.616 97.9216C272.468 97.9216 266.674 103.2 266.674 109.711C266.674 116.222 272.468 121.5 279.616 121.5Z" fill="#414042"/>
<path d="M15.3316 53.5L19.4435 41.5622H21.0601L25.172 53.5H23.9036L19.999 42.242H20.4798L16.6 53.5H15.3316ZM17.1637 50.6067V49.4627H23.3316V50.6067H17.1637ZM31.2198 53.5C30.7169 53.605 30.2195 53.6465 29.7276 53.6244C29.2413 53.6022 28.8046 53.4972 28.4178 53.3093C28.0364 53.1214 27.7463 52.8285 27.5473 52.4306C27.387 52.099 27.2986 51.7646 27.282 51.4275C27.271 51.0848 27.2654 50.6952 27.2654 50.2585V42.0596H28.4758V50.2088C28.4758 50.5846 28.4786 50.8997 28.4841 51.1539C28.4951 51.4026 28.5532 51.6237 28.6582 51.8171C28.8571 52.1874 29.1722 52.4085 29.6033 52.4803C30.0399 52.5522 30.5787 52.5356 31.2198 52.4306V53.5ZM25.3504 45.5912V44.5466H31.2198V45.5912H25.3504ZM37.4274 43.1373H36.3828L37.3693 40.5673H38.4139L37.4274 43.1373ZM36.7724 53.7487C35.8992 53.7487 35.142 53.5553 34.5009 53.1684C33.8653 52.7815 33.3707 52.2371 33.017 51.5352C32.6633 50.8333 32.4864 50.0098 32.4864 49.0648C32.4864 48.0865 32.6605 47.2409 33.0087 46.528C33.3569 45.815 33.846 45.2651 34.4761 44.8782C35.1116 44.4914 35.8605 44.2979 36.7227 44.2979C37.607 44.2979 38.3614 44.5024 38.9859 44.9114C39.6104 45.3148 40.083 45.8952 40.4035 46.6523C40.7241 47.4095 40.8705 48.3131 40.8429 49.3632H39.5994V48.9321C39.5773 47.7715 39.3258 46.8955 38.845 46.3041C38.3697 45.7128 37.6733 45.4171 36.7559 45.4171C35.7942 45.4171 35.0564 45.7294 34.5424 46.3539C34.0339 46.9784 33.7797 47.8682 33.7797 49.0233C33.7797 50.1508 34.0339 51.0268 34.5424 51.6513C35.0564 52.2703 35.7831 52.5798 36.7227 52.5798C37.3638 52.5798 37.922 52.4333 38.3973 52.1404C38.8781 51.842 39.2567 51.4136 39.5331 50.8554L40.6688 51.2948C40.3151 52.0741 39.7928 52.6793 39.102 53.1104C38.4167 53.5359 37.6401 53.7487 36.7724 53.7487ZM33.3486 49.3632V48.3435H40.188V49.3632H33.3486Z" fill="white"/>
<path d="M59.2813 62.5969C57.8089 62.5969 56.4361 62.2984 55.1627 61.7016C53.9026 61.0914 52.8216 60.2557 51.9196 59.1946C51.0176 58.1202 50.3743 56.8866 49.9896 55.4939L53.9888 54.4195C54.2143 55.2684 54.599 56.0046 55.1428 56.628C55.6999 57.2514 56.3499 57.7355 57.0927 58.0804C57.8355 58.412 58.6048 58.5778 59.4006 58.5778C60.4485 58.5778 61.3969 58.3258 62.2458 57.8218C63.108 57.3177 63.7845 56.6412 64.2752 55.7923C64.7793 54.9434 65.0313 54.0083 65.0313 52.9869C65.0313 51.9391 64.7727 50.9907 64.2554 50.1417C63.7513 49.2928 63.0682 48.623 62.206 48.1322C61.3571 47.6282 60.422 47.3762 59.4006 47.3762C58.2334 47.3762 57.2452 47.6083 56.4361 48.0725C55.627 48.5368 54.9969 49.074 54.5459 49.6841L50.9248 48.4108L51.8002 33.3492H67.2597V37.2688H53.9291L55.6203 35.697L54.9239 46.9782L54.1082 45.9237C54.8643 45.1677 55.7662 44.5907 56.8141 44.1927C57.862 43.7948 58.9032 43.5958 59.9378 43.5958C61.7152 43.5958 63.3003 44.007 64.6931 44.8294C66.0991 45.6518 67.2067 46.7726 68.0158 48.1919C68.8249 49.5979 69.2295 51.1963 69.2295 52.9869C69.2295 54.7643 68.7718 56.3826 67.8566 57.8417C66.9414 59.2875 65.7277 60.4414 64.2156 61.3036C62.7034 62.1658 61.0587 62.5969 59.2813 62.5969ZM82.5196 62.5969C81.0473 62.5969 79.6744 62.2984 78.4011 61.7016C77.141 61.0914 76.0599 60.2557 75.158 59.1946C74.256 58.1202 73.6127 56.8866 73.228 55.4939L77.2272 54.4195C77.4527 55.2684 77.8373 56.0046 78.3812 56.628C78.9383 57.2514 79.5882 57.7355 80.331 58.0804C81.0738 58.412 81.8431 58.5778 82.639 58.5778C83.6869 58.5778 84.6353 58.3258 85.4842 57.8218C86.3464 57.3177 87.0228 56.6412 87.5136 55.7923C88.0177 54.9434 88.2697 54.0083 88.2697 52.9869C88.2697 51.9391 88.011 50.9907 87.4937 50.1417C86.9897 49.2928 86.3066 48.623 85.4444 48.1322C84.5955 47.6282 83.6603 47.3762 82.639 47.3762C81.4717 47.3762 80.4836 47.6083 79.6744 48.0725C78.8653 48.5368 78.2353 49.074 77.7843 49.6841L74.1631 48.4108L75.0386 33.3492H90.4981V37.2688H77.1675L78.8587 35.697L78.1623 46.9782L77.3466 45.9237C78.1026 45.1677 79.0046 44.5907 80.0525 44.1927C81.1003 43.7948 82.1416 43.5958 83.1762 43.5958C84.9536 43.5958 86.5387 44.007 87.9314 44.8294C89.3375 45.6518 90.445 46.7726 91.2541 48.1919C92.0633 49.5979 92.4678 51.1963 92.4678 52.9869C92.4678 54.7643 92.0102 56.3826 91.095 57.8417C90.1797 59.2875 88.9661 60.4414 87.4539 61.3036C85.9418 62.1658 84.297 62.5969 82.5196 62.5969ZM100.844 62L98.0581 59.2145L123.943 33.3492L126.729 36.1546L100.844 62ZM120.76 62.5969C119.447 62.5969 118.246 62.2785 117.159 61.6419C116.084 60.9919 115.222 60.1297 114.572 59.0553C113.922 57.9677 113.597 56.7606 113.597 55.4342C113.597 54.1343 113.929 52.9405 114.592 51.8528C115.255 50.7652 116.131 49.8964 117.218 49.2464C118.306 48.5965 119.486 48.2715 120.76 48.2715C122.073 48.2715 123.273 48.5965 124.361 49.2464C125.449 49.8831 126.311 50.7453 126.948 51.8329C127.598 52.9073 127.923 54.1078 127.923 55.4342C127.923 56.7606 127.598 57.9677 126.948 59.0553C126.311 60.1297 125.449 60.9919 124.361 61.6419C123.273 62.2785 122.073 62.5969 120.76 62.5969ZM120.76 58.9956C121.41 58.9956 122 58.8365 122.531 58.5181C123.074 58.1865 123.506 57.7488 123.824 57.205C124.156 56.6611 124.321 56.0709 124.321 55.4342C124.321 54.7975 124.156 54.2072 123.824 53.6634C123.506 53.1196 123.074 52.6885 122.531 52.3701C122 52.0385 121.41 51.8727 120.76 51.8727C120.123 51.8727 119.533 52.0385 118.989 52.3701C118.459 52.6885 118.027 53.1196 117.696 53.6634C117.377 54.2072 117.218 54.7975 117.218 55.4342C117.218 56.0709 117.377 56.6611 117.696 57.205C118.027 57.7488 118.459 58.1865 118.989 58.5181C119.533 58.8365 120.123 58.9956 120.76 58.9956ZM104.027 47.0777C102.714 47.0777 101.513 46.7594 100.426 46.1227C99.3381 45.4727 98.4693 44.6106 97.8193 43.5361C97.1826 42.4485 96.8643 41.2414 96.8643 39.915C96.8643 38.6151 97.1959 37.4213 97.8591 36.3337C98.5223 35.246 99.3978 34.3772 100.485 33.7272C101.573 33.0773 102.754 32.7523 104.027 32.7523C105.34 32.7523 106.534 33.0773 107.608 33.7272C108.696 34.3639 109.565 35.2261 110.215 36.3138C110.865 37.3882 111.19 38.5886 111.19 39.915C111.19 41.2414 110.865 42.4485 110.215 43.5361C109.565 44.6106 108.696 45.4727 107.608 46.1227C106.534 46.7594 105.34 47.0777 104.027 47.0777ZM104.027 43.4765C104.664 43.4765 105.254 43.3173 105.798 42.9989C106.342 42.6673 106.773 42.2296 107.091 41.6858C107.423 41.1419 107.588 40.5517 107.588 39.915C107.588 39.2783 107.423 38.6881 107.091 38.1442C106.773 37.6004 106.342 37.1693 105.798 36.851C105.254 36.5194 104.664 36.3535 104.027 36.3535C103.39 36.3535 102.8 36.5194 102.256 36.851C101.726 37.1693 101.295 37.6004 100.963 38.1442C100.631 38.6881 100.466 39.2783 100.466 39.915C100.466 40.5517 100.631 41.1419 100.963 41.6858C101.295 42.2296 101.726 42.6673 102.256 42.9989C102.787 43.3173 103.377 43.4765 104.027 43.4765Z" fill="white"/>
<path d="M22.6004 88.3979C21.2828 88.3979 20.1333 88.0663 19.1517 87.4031C18.1702 86.7399 17.4097 85.8379 16.8703 84.6972C16.3308 83.5565 16.0611 82.2698 16.0611 80.8373C16.0611 79.3871 16.3308 78.096 16.8703 76.9641C17.4185 75.8234 18.1923 74.9259 19.1915 74.2715C20.1907 73.6083 21.3668 73.2767 22.7198 73.2767C24.0816 73.2767 25.2223 73.6083 26.142 74.2715C27.0705 74.9259 27.7735 75.8234 28.251 76.9641C28.7285 78.1049 28.9673 79.3959 28.9673 80.8373C28.9673 82.261 28.7285 83.5476 28.251 84.6972C27.7735 85.8379 27.0616 86.7399 26.1155 87.4031C25.1693 88.0663 23.9976 88.3979 22.6004 88.3979ZM23.0912 85.5328C23.949 85.5328 24.6387 85.3383 25.1604 84.9492C25.691 84.5513 26.0757 83.9986 26.3144 83.2912C26.562 82.5838 26.6858 81.7658 26.6858 80.8373C26.6858 79.9 26.562 79.082 26.3144 78.3834C26.0757 77.676 25.6998 77.1277 25.187 76.7386C24.6741 76.3407 24.0109 76.1417 23.1973 76.1417C22.3396 76.1417 21.6321 76.354 21.075 76.7784C20.5179 77.194 20.1067 77.76 19.8415 78.4763C19.5762 79.1837 19.4435 79.9707 19.4435 80.8373C19.4435 81.7127 19.5717 82.5086 19.8282 83.2249C20.0935 83.9323 20.4958 84.4938 21.0352 84.9094C21.5747 85.325 22.26 85.5328 23.0912 85.5328ZM26.6858 88V77.9457H26.2879V68.8995H29.5111V88H26.6858ZM39.7428 88.3979C38.2926 88.3979 37.0192 88.084 35.9227 87.4562C34.8262 86.8283 33.9684 85.9573 33.3495 84.8431C32.7393 83.7289 32.4342 82.4467 32.4342 80.9965C32.4342 79.4313 32.7349 78.0739 33.3362 76.9243C33.9375 75.7659 34.7731 74.8684 35.8431 74.2317C36.9131 73.595 38.1511 73.2767 39.5571 73.2767C41.0427 73.2767 42.3028 73.626 43.3374 74.3245C44.3809 75.0143 45.1546 75.9914 45.6587 77.2559C46.1627 78.5205 46.3529 80.0105 46.2291 81.726H43.0589V80.5587C43.05 79.0024 42.7759 77.8661 42.2365 77.1498C41.6971 76.4336 40.8482 76.0754 39.6898 76.0754C38.381 76.0754 37.4083 76.4822 36.7716 77.2957C36.1349 78.1004 35.8166 79.281 35.8166 80.8373C35.8166 82.2875 36.1349 83.4106 36.7716 84.2064C37.4083 85.0023 38.3368 85.4002 39.5571 85.4002C40.3441 85.4002 41.0206 85.2278 41.5866 84.8829C42.1613 84.5292 42.6035 84.0207 42.913 83.3575L46.0699 84.3125C45.5216 85.6036 44.6727 86.6073 43.5231 87.3235C42.3824 88.0398 41.1223 88.3979 39.7428 88.3979ZM34.8085 81.726V79.3119H44.6639V81.726H34.8085ZM60.243 88.3979C58.9254 88.3979 57.7758 88.0663 56.7942 87.4031C55.8127 86.7399 55.0522 85.8379 54.5128 84.6972C53.9734 83.5565 53.7037 82.2698 53.7037 80.8373C53.7037 79.3871 53.9734 78.096 54.5128 76.9641C55.061 75.8234 55.8348 74.9259 56.834 74.2715C57.8333 73.6083 59.0094 73.2767 60.3623 73.2767C61.7241 73.2767 62.8649 73.6083 63.7845 74.2715C64.713 74.9259 65.416 75.8234 65.8935 76.9641C66.371 78.1049 66.6098 79.3959 66.6098 80.8373C66.6098 82.261 66.371 83.5476 65.8935 84.6972C65.416 85.8379 64.7042 86.7399 63.758 87.4031C62.8118 88.0663 61.6401 88.3979 60.243 88.3979ZM60.7337 85.5328C61.5915 85.5328 62.2812 85.3383 62.803 84.9492C63.3335 84.5513 63.7182 83.9986 63.9569 83.2912C64.2045 82.5838 64.3283 81.7658 64.3283 80.8373C64.3283 79.9 64.2045 79.082 63.9569 78.3834C63.7182 77.676 63.3424 77.1277 62.8295 76.7386C62.3166 76.3407 61.6534 76.1417 60.8398 76.1417C59.9821 76.1417 59.2747 76.354 58.7176 76.7784C58.1605 77.194 57.7493 77.76 57.484 78.4763C57.2187 79.1837 57.0861 79.9707 57.0861 80.8373C57.0861 81.7127 57.2143 82.5086 57.4707 83.2249C57.736 83.9323 58.1384 84.4938 58.6778 84.9094C59.2172 85.325 59.9025 85.5328 60.7337 85.5328ZM64.3283 88V77.9457H63.9304V68.8995H67.1536V88H64.3283ZM77.3854 88.3979C75.9351 88.3979 74.6618 88.084 73.5652 87.4562C72.4687 86.8283 71.611 85.9573 70.992 84.8431C70.3818 83.7289 70.0767 82.4467 70.0767 80.9965C70.0767 79.4313 70.3774 78.0739 70.9787 76.9243C71.58 75.7659 72.4157 74.8684 73.4857 74.2317C74.5556 73.595 75.7936 73.2767 77.1997 73.2767C78.6853 73.2767 79.9454 73.626 80.98 74.3245C82.0234 75.0143 82.7972 75.9914 83.3012 77.2559C83.8053 78.5205 83.9954 80.0105 83.8716 81.726H80.7014V80.5587C80.6926 79.0024 80.4184 77.8661 79.879 77.1498C79.3396 76.4336 78.4907 76.0754 77.3323 76.0754C76.0236 76.0754 75.0508 76.4822 74.4142 77.2957C73.7775 78.1004 73.4591 79.281 73.4591 80.8373C73.4591 82.2875 73.7775 83.4106 74.4142 84.2064C75.0508 85.0023 75.9793 85.4002 77.1997 85.4002C77.9867 85.4002 78.6631 85.2278 79.2291 84.8829C79.8039 84.5292 80.246 84.0207 80.5555 83.3575L83.7124 84.3125C83.1641 85.6036 82.3152 86.6073 81.1657 87.3235C80.0249 88.0398 78.7648 88.3979 77.3854 88.3979ZM72.451 81.726V79.3119H82.3064V81.726H72.451ZM92.3624 88.3979C90.5938 88.3979 89.1568 88 88.0515 87.2041C86.9461 86.4083 86.2741 85.2897 86.0353 83.8483L89.2983 83.3442C89.4663 84.0517 89.8377 84.6088 90.4125 85.0155C90.9873 85.4223 91.7124 85.6257 92.5879 85.6257C93.3572 85.6257 93.9497 85.4754 94.3653 85.1747C94.7897 84.8652 95.002 84.4452 95.002 83.9146C95.002 83.5874 94.9224 83.3266 94.7632 83.132C94.6129 82.9286 94.2768 82.7341 93.7551 82.5484C93.2334 82.3627 92.4331 82.1284 91.3543 81.8454C90.1517 81.527 89.1966 81.1866 88.4892 80.824C87.7818 80.4526 87.2733 80.0149 86.9638 79.5109C86.6543 79.0068 86.4996 78.3967 86.4996 77.6804C86.4996 76.7873 86.7339 76.0091 87.2026 75.3459C87.6712 74.6827 88.3256 74.1742 89.1657 73.8205C90.0057 73.4579 90.9961 73.2767 92.1369 73.2767C93.2511 73.2767 94.237 73.4491 95.0948 73.794C95.9614 74.1388 96.66 74.6296 97.1906 75.2663C97.7211 75.903 98.0483 76.6502 98.1721 77.508L94.9091 78.0916C94.8295 77.4814 94.551 76.9995 94.0735 76.6458C93.6048 76.2921 92.9769 76.0931 92.1899 76.0489C91.4383 76.0047 90.8325 76.1196 90.3727 76.3938C89.9129 76.6591 89.683 77.0349 89.683 77.5212C89.683 77.7954 89.7758 78.0297 89.9615 78.2242C90.1472 78.4188 90.5186 78.6133 91.0757 78.8079C91.6417 79.0024 92.4817 79.2412 93.5959 79.5241C94.7367 79.8159 95.6475 80.152 96.3284 80.5322C97.0181 80.9036 97.5133 81.3502 97.814 81.8719C98.1235 82.3936 98.2782 83.0259 98.2782 83.7687C98.2782 85.2101 97.7521 86.342 96.6998 87.1644C95.6563 87.9867 94.2105 88.3979 92.3624 88.3979ZM107.404 88.3979C105.928 88.3979 104.668 88.0707 103.624 87.4164C102.581 86.7532 101.78 85.8512 101.223 84.7105C100.675 83.5697 100.396 82.2787 100.388 80.8373C100.396 79.3694 100.684 78.0695 101.25 76.9376C101.825 75.7969 102.638 74.9038 103.69 74.2582C104.743 73.6039 105.994 73.2767 107.444 73.2767C109.071 73.2767 110.446 73.6879 111.569 74.5102C112.701 75.3238 113.44 76.438 113.785 77.8528L110.601 78.715C110.354 77.9457 109.942 77.3488 109.368 76.9243C108.793 76.491 108.138 76.2744 107.404 76.2744C106.573 76.2744 105.888 76.4734 105.348 76.8713C104.809 77.2604 104.411 77.7998 104.155 78.4895C103.898 79.1793 103.77 79.9619 103.77 80.8373C103.77 82.1991 104.075 83.3 104.685 84.1401C105.295 84.9802 106.202 85.4002 107.404 85.4002C108.253 85.4002 108.921 85.2057 109.407 84.8166C109.903 84.4275 110.274 83.866 110.522 83.132L113.785 83.8615C113.342 85.3206 112.569 86.4437 111.463 87.2307C110.358 88.0088 109.005 88.3979 107.404 88.3979ZM122.381 88.3979C120.949 88.3979 119.697 88.0752 118.627 87.4296C117.557 86.7841 116.726 85.8954 116.134 84.7635C115.55 83.6228 115.258 82.3141 115.258 80.8373C115.258 79.334 115.559 78.0164 116.16 76.8845C116.761 75.7527 117.597 74.8684 118.667 74.2317C119.737 73.595 120.975 73.2767 122.381 73.2767C123.822 73.2767 125.078 73.5994 126.148 74.245C127.218 74.8905 128.049 75.7836 128.642 76.9243C129.234 78.0562 129.53 79.3605 129.53 80.8373C129.53 82.3229 129.23 83.6361 128.629 84.7768C128.036 85.9087 127.205 86.7974 126.135 87.4429C125.065 88.0796 123.814 88.3979 122.381 88.3979ZM122.381 85.4002C123.654 85.4002 124.601 84.9757 125.22 84.1268C125.839 83.2779 126.148 82.1814 126.148 80.8373C126.148 79.449 125.834 78.3436 125.206 77.5212C124.578 76.69 123.637 76.2744 122.381 76.2744C121.523 76.2744 120.816 76.4689 120.259 76.858C119.711 77.2383 119.304 77.7733 119.038 78.463C118.773 79.1439 118.641 79.9353 118.641 80.8373C118.641 82.2256 118.954 83.3354 119.582 84.1666C120.219 84.989 121.152 85.4002 122.381 85.4002ZM142.361 88V81.1026C142.361 80.6516 142.33 80.152 142.269 79.6037C142.207 79.0555 142.061 78.5293 141.831 78.0253C141.61 77.5124 141.274 77.0924 140.823 76.7652C140.381 76.438 139.779 76.2744 139.019 76.2744C138.612 76.2744 138.21 76.3407 137.812 76.4734C137.414 76.606 137.051 76.8359 136.724 77.1631C136.406 77.4814 136.149 77.9236 135.955 78.4895C135.76 79.0466 135.663 79.7629 135.663 80.6383L133.766 79.8292C133.766 78.6089 134 77.5035 134.469 76.5131C134.947 75.5227 135.645 74.7357 136.565 74.1521C137.485 73.5596 138.616 73.2634 139.961 73.2634C141.022 73.2634 141.897 73.4403 142.587 73.794C143.277 74.1477 143.825 74.5987 144.232 75.1469C144.638 75.6952 144.939 76.2788 145.134 76.8978C145.328 77.5168 145.452 78.1049 145.505 78.662C145.567 79.2102 145.598 79.6568 145.598 80.0016V88H142.361ZM132.426 88V73.6746H135.278V78.1181H135.663V88H132.426ZM157.455 88C156.509 88.1769 155.581 88.252 154.67 88.2255C153.768 88.2078 152.959 88.0442 152.243 87.7347C151.526 87.4164 150.983 86.9168 150.611 86.2359C150.284 85.6169 150.112 84.9846 150.094 84.3391C150.076 83.6935 150.067 82.964 150.067 82.1505V69.6953H153.251V81.9648C153.251 82.5395 153.255 83.0436 153.264 83.4769C153.282 83.9102 153.375 84.2639 153.543 84.538C153.861 85.0686 154.369 85.3648 155.068 85.4267C155.767 85.4886 156.562 85.4533 157.455 85.3206V88ZM147.467 76.1815V73.6746H157.455V76.1815H147.467ZM166.138 88.3979C164.705 88.3979 163.454 88.0752 162.384 87.4296C161.314 86.7841 160.483 85.8954 159.89 84.7635C159.306 83.6228 159.015 82.3141 159.015 80.8373C159.015 79.334 159.315 78.0164 159.917 76.8845C160.518 75.7527 161.354 74.8684 162.424 74.2317C163.494 73.595 164.732 73.2767 166.138 73.2767C167.579 73.2767 168.835 73.5994 169.905 74.245C170.975 74.8905 171.806 75.7836 172.398 76.9243C172.991 78.0562 173.287 79.3605 173.287 80.8373C173.287 82.3229 172.986 83.6361 172.385 84.7768C171.793 85.9087 170.961 86.7974 169.891 87.4429C168.821 88.0796 167.57 88.3979 166.138 88.3979ZM166.138 85.4002C167.411 85.4002 168.357 84.9757 168.976 84.1268C169.595 83.2779 169.905 82.1814 169.905 80.8373C169.905 79.449 169.591 78.3436 168.963 77.5212C168.335 76.69 167.393 76.2744 166.138 76.2744C165.28 76.2744 164.572 76.4689 164.015 76.858C163.467 77.2383 163.06 77.7733 162.795 78.463C162.53 79.1439 162.397 79.9353 162.397 80.8373C162.397 82.2256 162.711 83.3354 163.339 84.1666C163.975 84.989 164.908 85.4002 166.138 85.4002Z" fill="white"/>
<path d="M19.5016 114.24C18.4515 114.24 17.5865 114.014 16.9067 113.561C16.2325 113.107 15.818 112.477 15.6632 111.67L16.9067 111.463C17.0394 111.972 17.3406 112.378 17.8104 112.682C18.2857 112.98 18.8715 113.13 19.5679 113.13C20.2477 113.13 20.7838 112.989 21.1762 112.707C21.5686 112.419 21.7648 112.03 21.7648 111.538C21.7648 111.261 21.7012 111.038 21.5741 110.866C21.4525 110.689 21.201 110.526 20.8197 110.377C20.4383 110.228 19.8691 110.051 19.1119 109.847C18.2995 109.626 17.6639 109.404 17.2052 109.183C16.7465 108.962 16.4204 108.708 16.2269 108.421C16.0335 108.128 15.9368 107.771 15.9368 107.351C15.9368 106.843 16.0805 106.398 16.3679 106.017C16.6553 105.63 17.0532 105.331 17.5617 105.121C18.0701 104.906 18.6615 104.798 19.3358 104.798C20.01 104.798 20.6124 104.908 21.143 105.13C21.6791 105.345 22.1102 105.649 22.4363 106.041C22.7624 106.434 22.9558 106.89 23.0166 107.409L21.7731 107.633C21.6902 107.108 21.4276 106.694 20.9855 106.39C20.5489 106.08 19.9934 105.92 19.3192 105.909C18.6836 105.892 18.1668 106.014 17.7689 106.274C17.371 106.528 17.172 106.868 17.172 107.293C17.172 107.531 17.2439 107.735 17.3876 107.907C17.5313 108.073 17.791 108.23 18.1668 108.379C18.5482 108.528 19.0898 108.692 19.7917 108.868C20.6152 109.078 21.2618 109.299 21.7316 109.532C22.2014 109.764 22.5358 110.037 22.7347 110.352C22.9337 110.667 23.0332 111.057 23.0332 111.521C23.0332 112.367 22.7181 113.033 22.0881 113.519C21.4636 114 20.6014 114.24 19.5016 114.24ZM29.1329 103.637H28.0884L29.0749 101.067H30.1194L29.1329 103.637ZM28.6106 114.249C27.7208 114.249 26.9609 114.047 26.3308 113.644C25.7008 113.24 25.2172 112.682 24.8801 111.969C24.5429 111.256 24.3744 110.438 24.3744 109.515C24.3744 108.575 24.5457 107.752 24.8884 107.045C25.231 106.337 25.7174 105.787 26.3474 105.395C26.983 104.997 27.7374 104.798 28.6106 104.798C29.506 104.798 30.2687 105 30.8987 105.403C31.5343 105.801 32.0179 106.356 32.3495 107.069C32.6866 107.777 32.8552 108.592 32.8552 109.515C32.8552 110.455 32.6866 111.281 32.3495 111.994C32.0124 112.701 31.526 113.254 30.8904 113.652C30.2549 114.05 29.4949 114.249 28.6106 114.249ZM28.6106 113.08C29.6055 113.08 30.346 112.751 30.8324 112.093C31.3188 111.43 31.5619 110.571 31.5619 109.515C31.5619 108.432 31.316 107.57 30.8241 106.928C30.3378 106.287 29.5999 105.967 28.6106 105.967C27.9419 105.967 27.3892 106.119 26.9526 106.423C26.5215 106.721 26.1982 107.139 25.9827 107.675C25.7726 108.205 25.6676 108.819 25.6676 109.515C25.6676 110.593 25.9163 111.458 26.4137 112.11C26.9112 112.756 27.6435 113.08 28.6106 113.08ZM41.7919 114.249C40.9186 114.249 40.1615 114.055 39.5204 113.668C38.8848 113.282 38.3901 112.737 38.0364 112.035C37.6827 111.333 37.5059 110.51 37.5059 109.565C37.5059 108.587 37.6799 107.741 38.0281 107.028C38.3763 106.315 38.8654 105.765 39.4955 105.378C40.1311 104.991 40.88 104.798 41.7421 104.798C42.6264 104.798 43.3808 105.002 44.0053 105.411C44.6299 105.815 45.1024 106.395 45.423 107.152C45.7435 107.909 45.89 108.813 45.8623 109.863H44.6188V109.432C44.5967 108.271 44.3452 107.396 43.8644 106.804C43.3891 106.213 42.6927 105.917 41.7753 105.917C40.8136 105.917 40.0758 106.229 39.5618 106.854C39.0534 107.478 38.7991 108.368 38.7991 109.523C38.7991 110.651 39.0534 111.527 39.5618 112.151C40.0758 112.77 40.8026 113.08 41.7421 113.08C42.3832 113.08 42.9414 112.933 43.4167 112.64C43.8976 112.342 44.2762 111.914 44.5525 111.355L45.6882 111.795C45.3345 112.574 44.8123 113.179 44.1214 113.61C43.4361 114.036 42.6596 114.249 41.7919 114.249ZM38.368 109.863V108.844H45.2074V109.863H38.368ZM51.043 114.24C49.993 114.24 49.128 114.014 48.4482 113.561C47.774 113.107 47.3594 112.477 47.2047 111.67L48.4482 111.463C48.5809 111.972 48.8821 112.378 49.3519 112.682C49.8272 112.98 50.413 113.13 51.1094 113.13C51.7892 113.13 52.3253 112.989 52.7177 112.707C53.1101 112.419 53.3063 112.03 53.3063 111.538C53.3063 111.261 53.2427 111.038 53.1156 110.866C52.994 110.689 52.7425 110.526 52.3612 110.377C51.9798 110.228 51.4106 110.051 50.6534 109.847C49.841 109.626 49.2054 109.404 48.7467 109.183C48.2879 108.962 47.9619 108.708 47.7684 108.421C47.575 108.128 47.4783 107.771 47.4783 107.351C47.4783 106.843 47.622 106.398 47.9094 106.017C48.1968 105.63 48.5947 105.331 49.1031 105.121C49.6116 104.906 50.203 104.798 50.8772 104.798C51.5515 104.798 52.1539 104.908 52.6845 105.13C53.2206 105.345 53.6517 105.649 53.9778 106.041C54.3038 106.434 54.4973 106.89 54.5581 107.409L53.3146 107.633C53.2317 107.108 52.9691 106.694 52.527 106.39C52.0904 106.08 51.5349 105.92 50.8607 105.909C50.2251 105.892 49.7083 106.014 49.3104 106.274C48.9125 106.528 48.7135 106.868 48.7135 107.293C48.7135 107.531 48.7854 107.735 48.9291 107.907C49.0728 108.073 49.3325 108.23 49.7083 108.379C50.0897 108.528 50.6313 108.692 51.3332 108.868C52.1567 109.078 52.8033 109.299 53.2731 109.532C53.7429 109.764 54.0772 110.037 54.2762 110.352C54.4752 110.667 54.5747 111.057 54.5747 111.521C54.5747 112.367 54.2596 113.033 53.6296 113.519C53.0051 114 52.1429 114.24 51.043 114.24ZM59.7542 114.24C58.7041 114.24 57.8392 114.014 57.1594 113.561C56.4851 113.107 56.0706 112.477 55.9158 111.67L57.1594 111.463C57.292 111.972 57.5932 112.378 58.063 112.682C58.5383 112.98 59.1241 113.13 59.8205 113.13C60.5003 113.13 61.0364 112.989 61.4288 112.707C61.8212 112.419 62.0174 112.03 62.0174 111.538C62.0174 111.261 61.9539 111.038 61.8267 110.866C61.7051 110.689 61.4537 110.526 61.0723 110.377C60.691 110.228 60.1217 110.051 59.3646 109.847C58.5521 109.626 57.9165 109.404 57.4578 109.183C56.9991 108.962 56.673 108.708 56.4796 108.421C56.2861 108.128 56.1894 107.771 56.1894 107.351C56.1894 106.843 56.3331 106.398 56.6205 106.017C56.9079 105.63 57.3058 105.331 57.8143 105.121C58.3228 104.906 58.9141 104.798 59.5884 104.798C60.2627 104.798 60.8651 104.908 61.3956 105.13C61.9317 105.345 62.3628 105.649 62.6889 106.041C63.015 106.434 63.2084 106.89 63.2692 107.409L62.0257 107.633C61.9428 107.108 61.6803 106.694 61.2381 106.39C60.8015 106.08 60.2461 105.92 59.5718 105.909C58.9362 105.892 58.4195 106.014 58.0216 106.274C57.6236 106.528 57.4247 106.868 57.4247 107.293C57.4247 107.531 57.4965 107.735 57.6402 107.907C57.7839 108.073 58.0437 108.23 58.4195 108.379C58.8008 108.528 59.3425 108.692 60.0444 108.868C60.8678 109.078 61.5145 109.299 61.9843 109.532C62.454 109.764 62.7884 110.037 62.9874 110.352C63.1863 110.667 63.2858 111.057 63.2858 111.521C63.2858 112.367 62.9708 113.033 62.3407 113.519C61.7162 114 60.854 114.24 59.7542 114.24ZM68.913 114.249C68.0398 114.249 67.2826 114.055 66.6415 113.668C66.0059 113.282 65.5113 112.737 65.1576 112.035C64.8039 111.333 64.627 110.51 64.627 109.565C64.627 108.587 64.8011 107.741 65.1493 107.028C65.4975 106.315 65.9866 105.765 66.6166 105.378C67.2522 104.991 68.0011 104.798 68.8633 104.798C69.7476 104.798 70.502 105.002 71.1265 105.411C71.751 105.815 72.2236 106.395 72.5441 107.152C72.8647 107.909 73.0111 108.813 72.9835 109.863H71.74V109.432C71.7179 108.271 71.4664 107.396 70.9856 106.804C70.5103 106.213 69.8139 105.917 68.8964 105.917C67.9348 105.917 67.197 106.229 66.683 106.854C66.1745 107.478 65.9203 108.368 65.9203 109.523C65.9203 110.651 66.1745 111.527 66.683 112.151C67.197 112.77 67.9237 113.08 68.8633 113.08C69.5044 113.08 70.0626 112.933 70.5379 112.64C71.0187 112.342 71.3973 111.914 71.6736 111.355L72.8094 111.795C72.4557 112.574 71.9334 113.179 71.2426 113.61C70.5572 114.036 69.7807 114.249 68.913 114.249ZM65.4892 109.863V108.844H72.3286V109.863H65.4892ZM88.8203 114L88.8286 108.122C88.8286 107.431 88.6351 106.89 88.2483 106.497C87.8669 106.099 87.3806 105.901 86.7892 105.901C86.4521 105.901 86.1232 105.978 85.8027 106.133C85.4821 106.287 85.2168 106.536 85.0068 106.879C84.8023 107.221 84.7001 107.669 84.7001 108.222L83.9788 108.015C83.9623 107.373 84.0866 106.812 84.3519 106.332C84.6227 105.851 84.993 105.478 85.4628 105.212C85.9381 104.942 86.4742 104.806 87.0711 104.806C87.9719 104.806 88.6932 105.085 89.2348 105.644C89.7764 106.196 90.0472 106.945 90.0472 107.89L90.0389 114H88.8203ZM78.1343 114V105.047H79.2286V107.252H79.3612V114H78.1343ZM83.4897 114L83.498 108.205C83.498 107.492 83.3073 106.931 82.926 106.522C82.5502 106.108 82.0528 105.901 81.4338 105.901C80.8148 105.901 80.3146 106.113 79.9332 106.539C79.5519 106.959 79.3612 107.52 79.3612 108.222L78.6317 107.824C78.6317 107.249 78.7671 106.735 79.0379 106.282C79.3087 105.823 79.679 105.464 80.1488 105.204C80.6186 104.939 81.1519 104.806 81.7488 104.806C82.318 104.806 82.8237 104.928 83.2659 105.171C83.7136 105.414 84.0645 105.768 84.3187 106.232C84.573 106.696 84.7001 107.26 84.7001 107.923L84.6918 114H83.4897ZM93.4654 103.637L95.3638 101.399H96.4913L98.3897 103.637H97.1462L95.9276 102.203L94.7089 103.637H93.4654ZM95.9856 114.249C95.1124 114.249 94.3552 114.055 93.7141 113.668C93.0785 113.282 92.5839 112.737 92.2301 112.035C91.8764 111.333 91.6996 110.51 91.6996 109.565C91.6996 108.587 91.8737 107.741 92.2218 107.028C92.57 106.315 93.0592 105.765 93.6892 105.378C94.3248 104.991 95.0737 104.798 95.9358 104.798C96.8201 104.798 97.5745 105.002 98.1991 105.411C98.8236 105.815 99.2961 106.395 99.6167 107.152C99.9372 107.909 100.084 108.813 100.056 109.863H98.8125V109.432C98.7904 108.271 98.539 107.396 98.0581 106.804C97.5828 106.213 96.8864 105.917 95.969 105.917C95.0073 105.917 94.2695 106.229 93.7555 106.854C93.2471 107.478 92.9928 108.368 92.9928 109.523C92.9928 110.651 93.2471 111.527 93.7555 112.151C94.2695 112.77 94.9963 113.08 95.9358 113.08C96.5769 113.08 97.1352 112.933 97.6105 112.64C98.0913 112.342 98.4699 111.914 98.7462 111.355L99.882 111.795C99.5282 112.574 99.006 113.179 98.3151 113.61C97.6298 114.036 96.8533 114.249 95.9856 114.249ZM92.5617 109.863V108.844H99.4011V109.863H92.5617ZM105.237 114.24C104.187 114.24 103.322 114.014 102.642 113.561C101.968 113.107 101.553 112.477 101.398 111.67L102.642 111.463C102.775 111.972 103.076 112.378 103.546 112.682C104.021 112.98 104.607 113.13 105.303 113.13C105.983 113.13 106.519 112.989 106.911 112.707C107.304 112.419 107.5 112.03 107.5 111.538C107.5 111.261 107.436 111.038 107.309 110.866C107.188 110.689 106.936 110.526 106.555 110.377C106.174 110.228 105.604 110.051 104.847 109.847C104.035 109.626 103.399 109.404 102.94 109.183C102.482 108.962 102.156 108.708 101.962 108.421C101.769 108.128 101.672 107.771 101.672 107.351C101.672 106.843 101.816 106.398 102.103 106.017C102.39 105.63 102.788 105.331 103.297 105.121C103.805 104.906 104.397 104.798 105.071 104.798C105.745 104.798 106.348 104.908 106.878 105.13C107.414 105.345 107.845 105.649 108.171 106.041C108.498 106.434 108.691 106.89 108.752 107.409L107.508 107.633C107.425 107.108 107.163 106.694 106.721 106.39C106.284 106.08 105.729 105.92 105.054 105.909C104.419 105.892 103.902 106.014 103.504 106.274C103.106 106.528 102.907 106.868 102.907 107.293C102.907 107.531 102.979 107.735 103.123 107.907C103.266 108.073 103.526 108.23 103.902 108.379C104.283 108.528 104.825 108.692 105.527 108.868C106.35 109.078 106.997 109.299 107.467 109.532C107.937 109.764 108.271 110.037 108.47 110.352C108.669 110.667 108.768 111.057 108.768 111.521C108.768 112.367 108.453 113.033 107.823 113.519C107.199 114 106.337 114.24 105.237 114.24Z" fill="white"/>
<defs>
<linearGradient id="paint0_linear_1_2" x1="-20" y1="75" x2="350" y2="75" gradientUnits="userSpaceOnUse">
<stop stop-color="#1A98FF"/>
<stop offset="1" stop-color="#1A98FF" stop-opacity="0.7"/>
</linearGradient>
</defs>
</svg>
